<mxfile host="app.diagrams.net" modified="2023-06-15T22:24:06.360Z" agent="Mozilla/5.0 (Windows NT 10.0; Win64; x64) AppleWebKit/537.36 (KHTML, like Gecko) Chrome/114.0.0.0 Safari/537.36" etag="HcsgDjopAoc7ld3V4we9" version="21.4.0" type="device">
  <diagram name="Página-1" id="0IdLoP2hc3YTj0Zz2JRH">
    <mxGraphModel dx="1674" dy="834" grid="1" gridSize="10" guides="1" tooltips="1" connect="1" arrows="1" fold="1" page="1" pageScale="1" pageWidth="827" pageHeight="1169" math="0" shadow="0">
      <root>
        <mxCell id="0" />
        <mxCell id="1" parent="0" />
        <mxCell id="0TEzwMz0l3dmtodossJj-1" value="" style="edgeStyle=orthogonalEdgeStyle;rounded=0;orthogonalLoop=1;jettySize=auto;html=1;" edge="1" parent="1" source="0TEzwMz0l3dmtodossJj-2" target="0TEzwMz0l3dmtodossJj-4">
          <mxGeometry relative="1" as="geometry" />
        </mxCell>
        <mxCell id="0TEzwMz0l3dmtodossJj-2" value="Proveedor" style="rounded=1;whiteSpace=wrap;html=1;" vertex="1" parent="1">
          <mxGeometry x="60" y="190" width="120" height="60" as="geometry" />
        </mxCell>
        <mxCell id="0TEzwMz0l3dmtodossJj-3" style="edgeStyle=orthogonalEdgeStyle;rounded=0;orthogonalLoop=1;jettySize=auto;html=1;exitX=1;exitY=0.5;exitDx=0;exitDy=0;entryX=0;entryY=0.5;entryDx=0;entryDy=0;" edge="1" parent="1" source="0TEzwMz0l3dmtodossJj-4" target="0TEzwMz0l3dmtodossJj-5">
          <mxGeometry relative="1" as="geometry" />
        </mxCell>
        <mxCell id="0TEzwMz0l3dmtodossJj-4" value="Sistema Gestor Kiosco" style="ellipse;whiteSpace=wrap;html=1;aspect=fixed;" vertex="1" parent="1">
          <mxGeometry x="270" y="180" width="80" height="80" as="geometry" />
        </mxCell>
        <mxCell id="0TEzwMz0l3dmtodossJj-5" value="Cajero" style="rounded=1;whiteSpace=wrap;html=1;" vertex="1" parent="1">
          <mxGeometry x="470" y="190" width="120" height="60" as="geometry" />
        </mxCell>
        <mxCell id="0TEzwMz0l3dmtodossJj-6" value="" style="edgeStyle=orthogonalEdgeStyle;rounded=0;orthogonalLoop=1;jettySize=auto;html=1;" edge="1" parent="1" source="0TEzwMz0l3dmtodossJj-7">
          <mxGeometry relative="1" as="geometry">
            <mxPoint x="270" y="370" as="targetPoint" />
          </mxGeometry>
        </mxCell>
        <mxCell id="0TEzwMz0l3dmtodossJj-7" value="Proveedor" style="rounded=1;whiteSpace=wrap;html=1;" vertex="1" parent="1">
          <mxGeometry x="50" y="340" width="120" height="60" as="geometry" />
        </mxCell>
        <mxCell id="0TEzwMz0l3dmtodossJj-11" value="Cajero" style="rounded=1;whiteSpace=wrap;html=1;" vertex="1" parent="1">
          <mxGeometry x="480" y="340" width="120" height="60" as="geometry" />
        </mxCell>
        <mxCell id="0TEzwMz0l3dmtodossJj-12" style="edgeStyle=orthogonalEdgeStyle;rounded=0;orthogonalLoop=1;jettySize=auto;html=1;entryX=0;entryY=0.5;entryDx=0;entryDy=0;" edge="1" parent="1" source="0TEzwMz0l3dmtodossJj-13" target="0TEzwMz0l3dmtodossJj-11">
          <mxGeometry relative="1" as="geometry" />
        </mxCell>
        <mxCell id="0TEzwMz0l3dmtodossJj-13" value="Entrega Producto" style="ellipse;whiteSpace=wrap;html=1;aspect=fixed;" vertex="1" parent="1">
          <mxGeometry x="275" y="330" width="80" height="80" as="geometry" />
        </mxCell>
        <mxCell id="0TEzwMz0l3dmtodossJj-60" style="edgeStyle=orthogonalEdgeStyle;rounded=0;orthogonalLoop=1;jettySize=auto;html=1;entryX=0;entryY=0.5;entryDx=0;entryDy=0;" edge="1" parent="1" source="0TEzwMz0l3dmtodossJj-15" target="0TEzwMz0l3dmtodossJj-39">
          <mxGeometry relative="1" as="geometry" />
        </mxCell>
        <mxCell id="0TEzwMz0l3dmtodossJj-15" value="Proveedor" style="rounded=1;whiteSpace=wrap;html=1;" vertex="1" parent="1">
          <mxGeometry x="50" y="680" width="120" height="60" as="geometry" />
        </mxCell>
        <mxCell id="0TEzwMz0l3dmtodossJj-16" style="edgeStyle=orthogonalEdgeStyle;rounded=0;orthogonalLoop=1;jettySize=auto;html=1;exitX=1;exitY=0.5;exitDx=0;exitDy=0;entryX=0;entryY=0.5;entryDx=0;entryDy=0;" edge="1" parent="1" source="0TEzwMz0l3dmtodossJj-17" target="0TEzwMz0l3dmtodossJj-22">
          <mxGeometry relative="1" as="geometry" />
        </mxCell>
        <mxCell id="0TEzwMz0l3dmtodossJj-17" value="Cajero" style="rounded=1;whiteSpace=wrap;html=1;" vertex="1" parent="1">
          <mxGeometry x="520" y="680" width="120" height="60" as="geometry" />
        </mxCell>
        <mxCell id="0TEzwMz0l3dmtodossJj-20" style="edgeStyle=orthogonalEdgeStyle;rounded=0;orthogonalLoop=1;jettySize=auto;html=1;exitX=0.5;exitY=0;exitDx=0;exitDy=0;entryX=-0.009;entryY=0.413;entryDx=0;entryDy=0;entryPerimeter=0;" edge="1" parent="1" source="0TEzwMz0l3dmtodossJj-22" target="0TEzwMz0l3dmtodossJj-41">
          <mxGeometry relative="1" as="geometry" />
        </mxCell>
        <mxCell id="0TEzwMz0l3dmtodossJj-72" style="edgeStyle=orthogonalEdgeStyle;rounded=0;orthogonalLoop=1;jettySize=auto;html=1;entryX=0;entryY=0.5;entryDx=0;entryDy=0;" edge="1" parent="1" source="0TEzwMz0l3dmtodossJj-22" target="0TEzwMz0l3dmtodossJj-37">
          <mxGeometry relative="1" as="geometry" />
        </mxCell>
        <mxCell id="0TEzwMz0l3dmtodossJj-22" value="Escaneo producto" style="ellipse;whiteSpace=wrap;html=1;aspect=fixed;" vertex="1" parent="1">
          <mxGeometry x="710" y="670" width="80" height="80" as="geometry" />
        </mxCell>
        <mxCell id="0TEzwMz0l3dmtodossJj-36" style="edgeStyle=orthogonalEdgeStyle;rounded=0;orthogonalLoop=1;jettySize=auto;html=1;exitX=0.5;exitY=0;exitDx=0;exitDy=0;entryX=0;entryY=0.4;entryDx=0;entryDy=0;entryPerimeter=0;" edge="1" parent="1" source="0TEzwMz0l3dmtodossJj-37" target="0TEzwMz0l3dmtodossJj-40">
          <mxGeometry relative="1" as="geometry" />
        </mxCell>
        <mxCell id="0TEzwMz0l3dmtodossJj-37" value="Añadir Stock Inventario" style="ellipse;whiteSpace=wrap;html=1;aspect=fixed;" vertex="1" parent="1">
          <mxGeometry x="1045" y="670" width="80" height="80" as="geometry" />
        </mxCell>
        <mxCell id="0TEzwMz0l3dmtodossJj-38" style="edgeStyle=orthogonalEdgeStyle;rounded=0;orthogonalLoop=1;jettySize=auto;html=1;exitX=1;exitY=0.5;exitDx=0;exitDy=0;" edge="1" parent="1" source="0TEzwMz0l3dmtodossJj-39" target="0TEzwMz0l3dmtodossJj-17">
          <mxGeometry relative="1" as="geometry" />
        </mxCell>
        <mxCell id="0TEzwMz0l3dmtodossJj-39" value="Entrega de Producto al cajero" style="ellipse;whiteSpace=wrap;html=1;aspect=fixed;" vertex="1" parent="1">
          <mxGeometry x="320" y="670" width="80" height="80" as="geometry" />
        </mxCell>
        <mxCell id="0TEzwMz0l3dmtodossJj-40" value="Inventario" style="shape=internalStorage;whiteSpace=wrap;html=1;backgroundOutline=1;" vertex="1" parent="1">
          <mxGeometry x="1110" y="500" width="110" height="80" as="geometry" />
        </mxCell>
        <mxCell id="0TEzwMz0l3dmtodossJj-41" value="Productos" style="shape=internalStorage;whiteSpace=wrap;html=1;backgroundOutline=1;" vertex="1" parent="1">
          <mxGeometry x="860" y="500" width="110" height="80" as="geometry" />
        </mxCell>
        <mxCell id="0TEzwMz0l3dmtodossJj-47" value="1" style="ellipse;whiteSpace=wrap;html=1;aspect=fixed;fillColor=#007FFF;" vertex="1" parent="1">
          <mxGeometry x="290" y="280" width="50" height="50" as="geometry" />
        </mxCell>
        <mxCell id="0TEzwMz0l3dmtodossJj-49" value="2" style="ellipse;whiteSpace=wrap;html=1;aspect=fixed;fillColor=#FF3333;" vertex="1" parent="1">
          <mxGeometry x="290" y="610" width="50" height="50" as="geometry" />
        </mxCell>
        <mxCell id="0TEzwMz0l3dmtodossJj-50" value="2" style="ellipse;whiteSpace=wrap;html=1;aspect=fixed;fillColor=#FF3333;" vertex="1" parent="1">
          <mxGeometry x="420" y="610" width="50" height="50" as="geometry" />
        </mxCell>
        <mxCell id="0TEzwMz0l3dmtodossJj-51" value="2" style="ellipse;whiteSpace=wrap;html=1;aspect=fixed;fillColor=#FF3333;" vertex="1" parent="1">
          <mxGeometry x="680" y="620" width="50" height="50" as="geometry" />
        </mxCell>
        <mxCell id="0TEzwMz0l3dmtodossJj-54" value="2" style="ellipse;whiteSpace=wrap;html=1;aspect=fixed;fillColor=#FF3333;" vertex="1" parent="1">
          <mxGeometry x="995" y="430" width="50" height="50" as="geometry" />
        </mxCell>
      </root>
    </mxGraphModel>
  </diagram>
</mxfile>
